<?xml version="1.0" encoding="UTF-8"?>
<svg id="b" data-name="Layer 2" xmlns="http://www.w3.org/2000/svg" viewBox="0 0 19.63 19.62">
  <defs>
    <style>
      .d {
        fill: #bbc61b;
      }
    </style>
  </defs>
  <g id="c" data-name="Layer 1">
    <g>
      <path class="d" d="m19.58,5.51l-1.41,5.41c-.2.78-.9,1.32-1.7,1.32H5.12c-.51,0-.92.42-.92.93.01.5.41.9.92.91h11.4c.23,0,.42.19.42.42s-.19.42-.42.42H5.12c-.96,0-1.75-.79-1.76-1.76,0-.91.69-1.67,1.61-1.74l.29-.03L2.77.84H.43c-.24,0-.43-.19-.43-.42s.19-.42.43-.42h2.68c.19,0,.36.13.41.32l.71,3.03h4.91c.24,0,.42.19.42.42s-.18.42-.42.42h-4.71l1.69,7.21h10.35c.42,0,.78-.29.89-.69l1.41-5.41c.01-.06.02-.12.02-.19-.01-.51-.42-.92-.92-.92h-3.36c-.23,0-.42-.18-.42-.42s.19-.42.42-.42h3.35c.14,0,.27.02.4.05.95.22,1.54,1.17,1.32,2.11Z"/>
      <path class="d" d="m14.51,16.1c-.97,0-1.76.79-1.76,1.76s.79,1.76,1.76,1.76,1.76-.79,1.76-1.76-.79-1.76-1.76-1.76Zm0,2.68c-.51,0-.92-.41-.92-.92s.41-.92.92-.92.92.41.92.92-.41.92-.92.92Z"/>
      <path class="d" d="m7.13,16.1c-.97,0-1.76.79-1.76,1.76s.79,1.76,1.76,1.76,1.76-.79,1.76-1.76-.79-1.76-1.76-1.76Zm0,2.68c-.51,0-.92-.41-.92-.92s.41-.92.92-.92.92.41.92.92-.41.92-.92.92Z"/>
      <path class="d" d="m13.58,6.46c0,.11-.04.22-.11.29l-1.34,1.34c-.17.17-.44.17-.6.01l-1.34-1.34c-.16-.17-.16-.42,0-.59.08-.08.19-.13.31-.13.1,0,.2.04.28.12l.63.62V2.43c0-.23.18-.42.42-.42s.42.19.42.42v4.35l.62-.62c.16-.16.42-.16.58,0,.08.08.13.18.13.3Z"/>
    </g>
  </g>
</svg>