<?xml version="1.0" encoding="UTF-8"?>
<svg id="b" data-name="Layer 2" xmlns="http://www.w3.org/2000/svg" viewBox="0 0 17.77 20.96">
  <defs>
    <style>
      .d {
        fill: #bbc61b;
      }
    </style>
  </defs>
  <g id="c" data-name="Layer 1">
    <path class="d" d="m11.57,9.35l-.44-.14.36-.29c1.15-.93,1.84-2.42,1.84-3.99,0-2.72-1.99-4.93-4.45-4.93s-4.45,2.21-4.45,4.93c0,1.57.69,3.06,1.85,3.99l.36.29-.45.14C2.49,10.53,0,13.93,0,17.82v.37c0,1.53,1.24,2.77,2.77,2.77h12.23c1.52,0,2.77-1.24,2.77-2.77v-.37c0-3.89-2.49-7.29-6.2-8.47Zm-6.21-4.42c0-2.21,1.58-4,3.52-4s3.52,1.79,3.52,4-1.58,4-3.52,4-3.52-1.79-3.52-4Zm11.48,13.26c0,1.01-.83,1.84-1.84,1.84H2.77c-1.02,0-1.84-.83-1.84-1.84v-.37c0-4.39,3.57-7.96,7.95-7.96s7.96,3.57,7.96,7.96v.37Z"/>
  </g>
</svg>