<?xml version="1.0" encoding="UTF-8"?>
<svg id="b" data-name="Layer 2" xmlns="http://www.w3.org/2000/svg" viewBox="0 0 20.65 18.32">
  <defs>
    <style>
      .d {
        fill: #bbc61b;
      }
    </style>
  </defs>
  <g id="c" data-name="Layer 1">
    <path class="d" d="m19.04,1.76c-1.05-1.14-2.5-1.76-4.07-1.76-1.17,0-2.24.37-3.18,1.1-.48.37-.92.82-1.3,1.35l-.16.23-.16-.23c-.39-.53-.82-.99-1.3-1.35-.94-.73-2.02-1.1-3.19-1.1-1.56,0-3.01.62-4.06,1.76C.58,2.9,0,4.44,0,6.12s.65,3.32,2.05,5c1.26,1.53,3.08,3.08,5.2,4.88l.14.12c.69.59,1.46,1.25,2.26,1.95.37.33.98.33,1.36,0,.85-.75,1.68-1.45,2.4-2.07,2.11-1.8,3.94-3.35,5.2-4.88,1.39-1.68,2.04-3.27,2.04-5s-.57-3.22-1.61-4.36Zm-1.07,8.83c-1.21,1.46-3,2.99-5.08,4.76-.75.64-1.57,1.34-2.43,2.09l-.13.11-.13-.11c-.83-.72-1.62-1.4-2.33-2l-.08-.07c-2.08-1.78-3.88-3.31-5.1-4.78-1.28-1.54-1.85-2.92-1.85-4.47,0-1.47.49-2.81,1.39-3.79.9-.97,2.12-1.5,3.45-1.5.99,0,1.89.31,2.68.93.7.54,1.19,1.22,1.47,1.7.21.35.78.35,1,0,.28-.48.77-1.16,1.47-1.7.79-.62,1.69-.93,2.67-.93,1.34,0,2.56.53,3.45,1.5.9.98,1.4,2.32,1.4,3.79,0,1.55-.57,2.93-1.85,4.47Z"/>
  </g>
</svg>